<svg xmlns="http://www.w3.org/2000/svg" viewBox="0 0 1024 1024" role="img" aria-labelledby="title desc">
  <title id="title">minutes.bot favicon</title>
  <desc id="desc">A smiling robot face with a clock hand.</desc>
  <g fill="none" stroke="#f8fafc" stroke-linecap="round" stroke-linejoin="round">
    <path stroke-width="40" d="M512 343c-132 0-240 82-240 183s108 183 240 183 240-82 240-183-108-183-240-183Z"/>
    <path stroke-width="40" d="M262 523c-29 0-50 22-50 51s21 50 50 50"/>
    <path stroke-width="40" d="M762 523c29 0 50 22 50 51s-21 50-50 50"/>
    <path stroke-width="32" d="M496 343v-58"/>
    <circle cx="512" cy="253" r="40" stroke-width="18"/>
    <circle cx="512" cy="541" r="34" stroke-width="18"/>
    <circle cx="405" cy="528" r="34" stroke-width="18"/>
    <circle cx="619" cy="528" r="34" stroke-width="18"/>
    <circle cx="417" cy="513" r="11" stroke-width="10"/>
    <circle cx="631" cy="513" r="11" stroke-width="10"/>
    <path stroke-width="30" d="M544 522l58-100"/>
    <path stroke-width="22" d="M464 609c29 30 67 30 96 0"/>
    <path stroke-width="22" d="M335 543h16"/>
    <path stroke-width="22" d="M673 543h16"/>
    <circle cx="512" cy="395" r="14" stroke-width="14"/>
  </g>
</svg>
